<?xml version="1.0" encoding="UTF-8" standalone="no"?>
<!-- Generator: Adobe Illustrator 16.0.0, SVG Export Plug-In . SVG Version: 6.00 Build 0)  -->

<svg
   xmlns:dc="http://purl.org/dc/elements/1.1/"
   xmlns:cc="http://creativecommons.org/ns#"
   xmlns:rdf="http://www.w3.org/1999/02/22-rdf-syntax-ns#"
   xmlns:svg="http://www.w3.org/2000/svg"
   xmlns="http://www.w3.org/2000/svg"
   xmlns:sodipodi="http://sodipodi.sourceforge.net/DTD/sodipodi-0.dtd"
   xmlns:inkscape="http://www.inkscape.org/namespaces/inkscape"
   version="1.1"
   id="Ebene_1"
   x="0px"
   y="0px"
   width="109.61912"
   height="79"
   viewBox="-16.014 -31 109.61912 79"
   enable-background="new -16.014 -31 149 114"
   xml:space="preserve"
   sodipodi:docname="complogo.svg"
   inkscape:version="0.92.4 (unknown)"><metadata
   id="metadata13"><rdf:RDF><cc:Work
       rdf:about=""><dc:format>image/svg+xml</dc:format><dc:type
         rdf:resource="http://purl.org/dc/dcmitype/StillImage" /><dc:title>TUM_Web_Logo_blau</dc:title></cc:Work></rdf:RDF></metadata><defs
   id="defs11"><clipPath
     clipPathUnits="userSpaceOnUse"
     id="clipPath832"><path
       sodipodi:nodetypes="ccccccccccccccccccccccc"
       style="fill:#000000;fill-opacity:1"
       inkscape:connector-curvature="0"
       id="path834"
       d="m 11.986,-69 v 31 h 8 v -31 h 37 v 38 h -7 v -31 h -8 v 31 h -7 v -31 h -8 v 31 h -22 v -31 h -7 v 31 h -7 v -31 h -7 v -7 z" /></clipPath><filter
     inkscape:collect="always"
     style="color-interpolation-filters:sRGB"
     id="filter882"><feBlend
       inkscape:collect="always"
       mode="overlay"
       in2="BackgroundImage"
       id="feBlend884" /></filter></defs><sodipodi:namedview
   pagecolor="#ffffff"
   bordercolor="#666666"
   borderopacity="1"
   objecttolerance="10"
   gridtolerance="10"
   guidetolerance="10"
   inkscape:pageopacity="0"
   inkscape:pageshadow="2"
   inkscape:window-width="1920"
   inkscape:window-height="1011"
   id="namedview9"
   showgrid="false"
   fit-margin-top="7"
   fit-margin-left="7"
   fit-margin-right="7"
   fit-margin-bottom="7"
   inkscape:zoom="7.9999996"
   inkscape:cx="72.014292"
   inkscape:cy="44.175815"
   inkscape:window-x="0"
   inkscape:window-y="0"
   inkscape:window-maximized="1"
   inkscape:current-layer="layer2"
   inkscape:snap-global="true" />
<title
   id="title2">TUM_Web_Logo_blau</title>
<desc
   id="desc4">TUM</desc>
<g
   inkscape:groupmode="layer"
   id="layer2"
   inkscape:label="new"
   style="display:inline"
   transform="translate(-5e-5)"><path
     d="M 18.98605,-24 V 7.2 h 8 V -24 h 37 v 38 h -7 v -31 h -7.8 v 31 h -7.4 v -31 h -7.8 v 31 h -22 v -31 h -6.9 v 31 h -7.2 v -31 h -6.9 v -7 z"
     id="path6"
     inkscape:connector-curvature="0"
     style="fill:#000013;fill-opacity:1"
     sodipodi:nodetypes="ccccccccccccccccccccccc" /><path
     sodipodi:nodetypes="ccccccccccccc"
     style="fill:#000013;fill-opacity:1"
     inkscape:connector-curvature="0"
     id="path1932"
     d="M 74.98605,-3.2 V 7.2 h 8 V -3.2 Z m 15,-6.8 V 9 30 h -7 V 14 h -15 v -24 z" /><path
     d="M 95.373484,25.5306 89.98605,30 l -4.086309,-4.925655 5.387434,-4.4694 z"
     id="path1936"
     inkscape:connector-curvature="0"
     style="fill:#000013;fill-opacity:1;stroke-width:1"
     sodipodi:nodetypes="ccccc"
     inkscape:transform-center-x="-0.72704358"
     inkscape:transform-center-y="-4.5041365" /></g>
<g
   inkscape:groupmode="layer"
   id="layer1"
   inkscape:label="og"
   style="display:none;opacity:0.73299997;filter:url(#filter882)"
   transform="translate(-5e-5)"><path
     sodipodi:nodetypes="ccccccccccccccccccccccc"
     style="fill:#7bff9f;fill-opacity:1"
     inkscape:connector-curvature="0"
     id="path836"
     d="M 18.986,-24 V 7 h 8 v -31 h 37 v 38 h -7 v -31 h -8 v 31 h -7 v -31 h -8 v 31 h -22 v -31 h -7 v 31 h -7 v -31 h -7 v -7 z" /><path
     d="M 98.986,-24 V 7 h 8 v -31 h 37 v 38 h -7 v -31 h -8 v 31 h -7 v -31 h -8 v 31 h -22 v -31 h -7 v 31 h -7 v -31 h -7 v -7 z"
     id="path828"
     inkscape:connector-curvature="0"
     style="fill:#000000;fill-opacity:1"
     sodipodi:nodetypes="ccccccccccccccccccccccc" /></g><g
   inkscape:groupmode="layer"
   id="layer3"
   inkscape:label="newdash"
   style="display:none"
   transform="translate(-5e-5)"><path
     d="m 11.986,-69 v 31 h 8 v -31 h 37 v 38 h -7 v -31 h -8 v 31 h -7 v -31 h -8 v 31 h -22 v -31 h -7 v 31 h -7 v -31 h -7 v -7 z"
     id="path830"
     inkscape:connector-curvature="0"
     style="display:inline;fill:none;stroke:#f0c7ff;stroke-width:0.5;stroke-miterlimit:4;stroke-dasharray:2, 1;stroke-dashoffset:0;stroke-opacity:1"
     sodipodi:nodetypes="ccccccccccccccccccccccc"
     clip-path="url(#clipPath832)"
     transform="translate(7,45)" /></g></svg>